<svg version="1.1" id="Layer_1" xmlns="http://www.w3.org/2000/svg" xmlns:xlink="http://www.w3.org/1999/xlink" x="0px" y="0px"
	 width="100%" viewBox="182 350 330 330" xml:space="preserve">
<path fill="#8b5cf6" opacity="1.000000" stroke="none" 
	d="
M375.999939,661.352661 
	C329.676483,661.350647 283.852814,661.274109 238.030045,661.448181 
	C232.789810,661.468018 228.963013,660.163879 225.365234,656.198792 
	C217.532501,647.566406 209.254547,639.333923 201.048035,631.047485 
	C198.672440,628.648804 197.545349,626.123230 197.577606,622.656555 
	C197.726349,606.661438 197.744858,590.662781 197.549606,574.668518 
	C197.499130,570.533875 198.964355,569.055908 203.002533,569.070862 
	C221.831329,569.140564 240.661377,569.128418 259.489410,568.965698 
	C264.054626,568.926270 265.746704,570.660645 265.406952,575.211243 
	C265.085327,579.518616 265.451508,583.872803 265.341980,588.202026 
	C265.263153,591.317627 266.394043,592.829285 269.696533,592.725586 
	C274.690826,592.568665 279.692688,592.662476 284.691132,592.622559 
	C286.868591,592.605164 288.836426,592.264221 288.402313,589.312073 
	C286.426819,575.877075 286.601562,562.441711 288.345062,549.001038 
	C288.382599,548.711365 288.135498,548.384766 287.996155,548.007629 
	C286.271088,546.667480 284.194366,547.206726 282.258667,547.202271 
	C266.762177,547.166626 251.264984,547.136597 235.769272,547.262207 
	C232.525970,547.288574 230.077484,546.328918 227.812988,543.992249 
	C219.001251,534.899780 210.111542,525.880554 201.120407,516.965576 
	C198.715836,514.581360 197.553833,512.131836 197.565048,508.643066 
	C197.677002,473.817657 197.680420,438.991547 197.555511,404.166199 
	C197.541199,400.174652 198.786987,397.304474 201.608963,394.515503 
	C210.256897,385.968903 218.713104,377.224609 227.104370,368.424194 
	C229.589386,365.818024 232.257217,364.700165 235.891861,364.703705 
	C307.709503,364.773773 379.527283,364.764679 451.344879,364.671783 
	C454.974396,364.667084 457.633087,365.757446 460.140961,368.346771 
	C469.066345,377.562103 478.116333,386.658630 487.228394,395.689911 
	C489.413574,397.855774 490.302826,400.183838 490.284302,403.233154 
	C490.187103,419.229065 490.114929,435.227325 490.310120,451.221405 
	C490.364624,455.687775 488.615997,456.985992 484.409149,456.959076 
	C465.754425,456.839661 447.098328,456.930817 428.442749,456.952454 
	C422.447113,456.959381 421.904175,456.442474 421.875549,450.421082 
	C421.854950,446.089020 421.822662,441.755859 421.896118,437.424866 
	C421.946259,434.469849 420.659393,433.220001 417.673920,433.308868 
	C413.178864,433.442749 408.677155,433.355499 404.178253,433.358063 
	C401.827637,433.359375 400.138336,434.223511 400.498444,436.871704 
	C402.362946,450.583160 402.771881,464.312775 400.713684,477.824188 
	C403.081299,479.240570 405.127197,478.803009 407.077820,478.806854 
	C422.074493,478.836426 437.071533,478.853577 452.067719,478.755768 
	C455.064331,478.736237 457.584686,479.346863 459.744354,481.554260 
	C469.295807,491.316833 478.887665,501.040100 488.511139,510.731689 
	C490.221802,512.454468 490.389557,514.481995 490.390015,516.703613 
	C490.397339,552.528809 490.412811,588.354126 490.511475,624.179138 
	C490.518127,626.587097 489.623871,628.227356 488.015076,629.857300 
	C478.770355,639.223328 469.539093,648.604248 460.435760,658.107056 
	C458.026367,660.622253 455.363617,661.418457 451.981171,661.405823 
	C426.821045,661.311707 401.660400,661.353394 375.999939,661.352661 
M441.090485,593.504944 
	C446.401459,577.865967 446.644745,562.117737 441.610779,546.417969 
	C437.180664,532.601624 424.426483,526.685547 411.077576,532.078247 
	C406.455505,533.945435 402.022064,536.278137 397.492584,538.376770 
	C396.024506,539.057007 394.470764,539.227478 393.402802,537.808838 
	C392.215790,536.232178 392.667450,534.534180 394.025482,533.323547 
	C395.377167,532.118530 396.891846,530.994019 398.518372,530.218994 
	C403.287506,527.946472 408.147858,525.865479 413.122101,523.642639 
	C411.791290,517.371826 407.383362,514.314636 402.003418,512.493347 
	C389.510681,508.264099 378.070190,511.271942 367.280121,518.018860 
	C358.155090,523.724548 351.262177,532.042969 343.038544,538.807434 
	C340.868103,540.592773 340.188385,543.272949 339.631622,545.890808 
	C336.400635,561.083740 336.490509,576.300537 339.483551,591.512817 
	C340.182892,595.067139 341.924652,597.946289 345.003082,600.099426 
	C348.600555,602.615601 352.415771,604.725647 356.633759,605.732971 
	C374.116028,609.908020 391.570831,614.095581 409.774475,613.982544 
	C424.484222,613.891174 435.141022,608.162231 441.090485,593.504944 
M312.413269,402.011505 
	C302.565552,398.351746 292.876892,398.195312 283.531464,403.536285 
	C277.581665,406.936615 274.295959,412.625580 275.405426,417.223389 
	C276.480713,421.679688 281.577454,424.506134 288.787262,424.795898 
	C293.546600,424.987152 298.019440,423.779907 302.464172,422.330200 
	C304.256042,421.745728 305.882904,421.989441 306.749451,423.761505 
	C307.745819,425.798950 306.612152,427.224518 304.952637,428.362061 
	C303.106903,429.627197 300.365417,429.399536 298.923492,432.148132 
	C308.045837,442.011871 310.358459,454.259094 310.121552,467.219025 
	C309.879150,480.478851 306.092865,492.350861 295.147125,501.427826 
	C299.393066,502.189148 302.828674,501.192474 306.239105,500.676361 
	C317.752960,498.933990 329.222565,496.934326 340.058258,492.358429 
	C345.904785,489.889526 349.298218,485.726776 350.359100,479.366608 
	C352.291107,467.784210 352.400238,456.147919 351.340149,444.537292 
	C350.880432,439.502106 351.315674,433.649963 347.609253,429.764648 
	C337.402344,419.065063 327.367950,407.995819 312.413269,402.011505 
M252.482269,493.003937 
	C259.289490,500.800781 267.540741,504.132935 277.893433,501.533722 
	C289.814636,498.540741 298.286743,491.795105 301.536804,479.648285 
	C303.761902,471.332214 303.519531,462.766998 302.223846,454.344147 
	C300.333496,442.055847 293.785065,433.615936 281.253906,430.426514 
	C276.443176,429.202118 272.195129,426.713287 269.872314,422.126953 
	C268.149048,418.724426 265.781342,418.766235 262.822632,419.794464 
	C254.906174,422.545624 249.156906,427.885651 246.671982,435.725616 
	C240.474899,455.277527 241.067947,474.396057 252.482269,493.003937 
M319.494629,537.124146 
	C314.834717,537.229004 310.167969,537.212158 305.516968,537.474854 
	C301.338318,537.710999 298.312683,539.430969 297.383148,544.050293 
	C293.989502,560.914734 294.097198,577.752380 297.398743,594.598877 
	C298.082458,598.087524 300.136169,600.374634 303.751343,600.632080 
	C312.046844,601.222900 320.339966,601.993774 328.677795,601.652649 
	C332.400452,601.500305 333.950470,600.374756 332.961365,596.058594 
	C330.126709,583.689453 329.136719,571.182068 330.415314,558.425781 
	C331.104980,551.545044 332.538788,544.755371 333.254639,537.774719 
	C328.753876,536.357666 324.585388,537.314819 319.494629,537.124146 
M358.749451,469.004730 
	C358.143921,474.624084 357.640533,480.282532 355.995178,485.703827 
	C354.765808,489.754425 356.422699,490.663025 360.086700,490.709259 
	C368.250366,490.812378 376.372986,490.252747 384.503754,489.708344 
	C388.369904,489.449524 390.697998,487.387054 391.454163,483.709534 
	C394.982330,466.550659 395.010559,449.383881 391.367126,432.229187 
	C390.590637,428.573212 388.129517,427.017517 384.615997,426.712280 
	C375.651428,425.933441 366.669678,426.126343 357.690491,426.255493 
	C357.088623,426.264130 356.492584,426.678589 355.445831,427.073242 
	C358.358398,440.643646 360.151093,454.258545 358.749451,469.004730 
z"/>
</svg>